M48
INCH,TZ
T10C0.035
%
T10
X046000Y047000
X046000Y046000
X046000Y045000
X046000Y044000
X043000Y047000
X043000Y046000
X043000Y045000
X043000Y044000
X048000Y047000
X048000Y044000
X047000Y044000
X047000Y041000
X051000Y047000
X051000Y046000
X050000Y044000
X050000Y043000
X046000Y048000
X042000Y046000
X041000Y046000
X038000Y046000
X038000Y045000
X038000Y044000
X038000Y041000
X042000Y045000
X041000Y045000
X043000Y048000
X042000Y048000
X041000Y048000
X040000Y048000
X037000Y048000
X037000Y047000
X040000Y044000
X042000Y042000
X041000Y042000
X040000Y042000
X040000Y043000
M30

